<mxfile host="app.diagrams.net" modified="2024-05-03T21:23:13.000Z" agent="Mozilla/5.0 (Windows NT 10.0; Win64; x64) AppleWebKit/537.36 (KHTML, like Gecko) Chrome/123.0.0.0 Safari/537.36" version="24.3.1" etag="or4PDgQI1e9PqC4bjdzj" type="github">
  <diagram name="Page-1" id="S4t7enC30b3lAQ24_olq">
    <mxGraphModel>
      <root>
        <mxCell id="0" />
        <mxCell id="1" parent="0" />
      </root>
    </mxGraphModel>
  </diagram>
</mxfile>
